<svg width="20" height="20" viewBox="0 0 20 20" fill="none" xmlns="http://www.w3.org/2000/svg">
<path d="M14.7428 4.8951L15.5332 3.5201C15.5694 3.45723 15.579 3.38259 15.5601 3.31259C15.5412 3.24259 15.4953 3.18296 15.4325 3.14682L14.3148 2.50479C14.2519 2.46867 14.1773 2.45902 14.1073 2.47795C14.0372 2.49688 13.9776 2.54284 13.9415 2.60572L13.1523 3.97932C12.4407 3.67237 11.6879 3.47158 10.9179 3.38338V2.5476H11.4726C11.5451 2.5476 11.6147 2.51879 11.666 2.46751C11.7172 2.41623 11.746 2.34668 11.746 2.27416V0.985413C11.7461 0.949499 11.739 0.913933 11.7253 0.880748C11.7115 0.847564 11.6914 0.817412 11.666 0.792017C11.6406 0.766622 11.6105 0.746482 11.5773 0.732748C11.5441 0.719013 11.5085 0.711955 11.4726 0.711975H8.52761C8.49169 0.711955 8.45613 0.719013 8.42294 0.732748C8.38976 0.746482 8.35961 0.766622 8.33421 0.792017C8.30882 0.817412 8.28868 0.847564 8.27494 0.880748C8.26121 0.913933 8.25415 0.949499 8.25417 0.985413V2.27416C8.25417 2.34668 8.28298 2.41623 8.33426 2.46751C8.38554 2.51879 8.45509 2.5476 8.52761 2.5476H9.08229V3.3826C8.31235 3.4708 7.55953 3.67159 6.84792 3.97854L6.0587 2.60494C6.04083 2.57379 6.017 2.54647 5.98856 2.52453C5.96013 2.5026 5.92765 2.48648 5.89298 2.47711C5.85831 2.46773 5.82214 2.46528 5.78652 2.4699C5.75091 2.47451 5.71655 2.4861 5.68542 2.50401L4.56776 3.14604C4.50491 3.18218 4.45898 3.24181 4.44008 3.31181C4.42118 3.38181 4.43086 3.45645 4.46698 3.51932L5.25745 4.8951C3.90664 5.89336 2.90527 7.29241 2.39596 8.89298C1.88665 10.4935 1.89538 12.214 2.42089 13.8093C2.94641 15.4047 3.96191 16.7935 5.32278 17.778C6.68364 18.7625 8.32046 19.2925 10.0001 19.2925C11.6798 19.2925 13.3166 18.7625 14.6774 17.778C16.0383 16.7935 17.0538 15.4047 17.5793 13.8093C18.1048 12.214 18.1136 10.4935 17.6043 8.89298C17.0949 7.29241 16.0936 5.89336 14.7428 4.8951ZM14.2795 3.11385L14.9228 3.48432L14.2903 4.58526C14.0819 4.45213 13.8677 4.32859 13.6476 4.21463L14.2795 3.11385ZM8.80104 1.25885H11.1992V2.00073H8.80104V1.25885ZM9.62917 2.5476H10.371V3.33776C10.2481 3.33197 10.1251 3.32807 10.0001 3.32807C9.87511 3.32807 9.75214 3.33182 9.62917 3.3376V2.5476ZM5.07745 3.48432L5.72073 3.11479L6.35261 4.21463C6.13229 4.32838 5.91808 4.45192 5.70995 4.58526L5.07745 3.48432ZM10.0001 18.741C8.53 18.741 7.0929 18.3051 5.87056 17.4883C4.64821 16.6716 3.6955 15.5107 3.13292 14.1525C2.57035 12.7943 2.42316 11.2998 2.70997 9.85791C2.99679 8.41605 3.70473 7.09162 4.74426 6.05211C5.7838 5.0126 7.10824 4.30469 8.5501 4.0179C9.99197 3.73112 11.4865 3.87834 12.8447 4.44095C14.2029 5.00355 15.3637 5.95628 16.1805 7.17865C16.9972 8.40101 17.4331 9.83812 17.4331 11.3082C17.4308 13.2789 16.647 15.1681 15.2535 16.5616C13.86 17.955 11.9707 18.7388 10.0001 18.741Z" fill="#1146A6"/>
<path d="M15.376 14.3845C15.9168 13.4434 16.1999 12.3764 16.197 11.2911C16.194 10.2057 15.905 9.14025 15.3591 8.20214C15.3555 8.19279 15.3513 8.18366 15.3466 8.1748C15.3418 8.16751 15.3366 8.16047 15.331 8.15371C14.793 7.24866 14.0348 6.49442 13.1269 5.96121C13.1195 5.95506 13.1116 5.94937 13.1035 5.94418C13.0946 5.93957 13.0855 5.9355 13.0762 5.93199C12.1352 5.39119 11.0682 5.10799 9.98289 5.11092C8.89757 5.11386 7.83219 5.40283 6.89412 5.94871C6.88462 5.95246 6.87534 5.95674 6.86631 5.96152C6.85912 5.96637 6.85218 5.97158 6.84553 5.97715C5.94034 6.51511 5.18595 7.27332 4.65256 8.18121C4.6396 8.19598 4.62972 8.21319 4.6235 8.23183C4.08272 9.17288 3.79955 10.2398 3.80251 11.3252C3.80548 12.4105 4.09447 13.4759 4.64037 14.414C4.64402 14.4234 4.6482 14.4326 4.65287 14.4415C4.65631 14.4475 4.66147 14.4518 4.66522 14.4571C5.20327 15.3644 5.96248 16.1204 6.87193 16.6546C6.87958 16.6609 6.88756 16.6667 6.89584 16.672C6.90272 16.6759 6.91022 16.6775 6.91725 16.6809C7.85996 17.2239 8.92938 17.5082 10.0173 17.5051C11.1052 17.502 12.173 17.2116 13.1126 16.6632C13.1193 16.66 13.1265 16.6585 13.133 16.6546C13.1396 16.6507 13.1468 16.6445 13.1538 16.639C14.061 16.0999 14.8168 15.3395 15.3504 14.429C15.3546 14.4229 15.3599 14.4184 15.3637 14.4118C15.3684 14.403 15.3725 14.3939 15.376 14.3845ZM13.0877 16.0364L12.7363 15.4375C12.6996 15.3749 12.6396 15.3294 12.5694 15.3111C12.4992 15.2928 12.4247 15.3031 12.3621 15.3398C12.2995 15.3765 12.2541 15.4365 12.2358 15.5067C12.2174 15.5769 12.2278 15.6514 12.2644 15.714L12.6163 16.3143C11.891 16.6956 11.091 16.9133 10.2726 16.9521V16.2545C10.2726 16.182 10.2438 16.1124 10.1925 16.0611C10.1412 16.0099 10.0716 15.981 9.99912 15.981C9.9266 15.981 9.85705 16.0099 9.80577 16.0611C9.75449 16.1124 9.72568 16.182 9.72568 16.2545V16.9521C8.91816 16.9134 8.12856 16.7005 7.411 16.3281L7.75943 15.726C7.79462 15.6634 7.8037 15.5893 7.7847 15.52C7.76571 15.4506 7.72017 15.3916 7.65794 15.3556C7.59572 15.3196 7.52182 15.3095 7.45223 15.3276C7.38265 15.3457 7.32299 15.3904 7.28615 15.4521L6.93818 16.0535C6.27338 15.623 5.70571 15.0585 5.27147 14.396L5.871 14.0448C5.93323 14.008 5.97834 13.948 5.99646 13.878C6.01459 13.808 6.00424 13.7337 5.96769 13.6713C5.93114 13.6089 5.87137 13.5635 5.80145 13.5451C5.73152 13.5266 5.65715 13.5367 5.59459 13.5729L4.99428 13.9248C4.61299 13.1995 4.39523 12.3995 4.35631 11.5811H5.05397C5.12649 11.5811 5.19604 11.5522 5.24732 11.501C5.2986 11.4497 5.3274 11.3801 5.3274 11.3076C5.3274 11.2351 5.2986 11.1655 5.24732 11.1143C5.19604 11.063 5.12649 11.0342 5.05397 11.0342H4.35631C4.39486 10.2265 4.60759 9.43667 4.9799 8.71886L5.58209 9.06714C5.64474 9.10161 5.7184 9.11016 5.78728 9.09097C5.85615 9.07177 5.91477 9.02636 5.95058 8.96447C5.98638 8.90257 5.99651 8.82912 5.9788 8.75984C5.96109 8.69057 5.91695 8.63099 5.85584 8.59386L5.25459 8.24589C5.68513 7.58134 6.24954 7.01389 6.91178 6.5798L7.26318 7.17933C7.30001 7.24156 7.35998 7.28668 7.42999 7.3048C7.49999 7.32292 7.57432 7.31258 7.63672 7.27603C7.69911 7.23948 7.74449 7.1797 7.76292 7.10978C7.78135 7.03986 7.77133 6.96548 7.73506 6.90293L7.38318 6.30261C8.10844 5.9213 8.90846 5.70358 9.72693 5.6648V6.3623C9.72693 6.43482 9.75574 6.50437 9.80702 6.55565C9.8583 6.60693 9.92785 6.63574 10.0004 6.63574C10.0729 6.63574 10.1424 6.60693 10.1937 6.55565C10.245 6.50437 10.2738 6.43482 10.2738 6.3623V5.6648C11.0815 5.70331 11.8713 5.91598 12.5891 6.28824L12.2401 6.89058C12.2215 6.92168 12.2093 6.95616 12.2042 6.99201C12.1991 7.02786 12.2011 7.06437 12.2102 7.09942C12.2193 7.13447 12.2353 7.16736 12.2572 7.19618C12.2791 7.22501 12.3066 7.24919 12.3379 7.26733C12.3693 7.28547 12.4039 7.2972 12.4398 7.30185C12.4757 7.30649 12.5122 7.30396 12.5471 7.29439C12.5821 7.28482 12.6147 7.26841 12.6433 7.24611C12.6718 7.22381 12.6956 7.19607 12.7133 7.16449L13.0613 6.56246C13.7261 6.99312 14.2938 7.55775 14.728 8.22027L14.1285 8.57152C14.0973 8.58958 14.0701 8.61362 14.0482 8.64225C14.0264 8.67089 14.0104 8.70355 14.0013 8.73837C13.9921 8.77319 13.9899 8.80949 13.9947 8.84516C13.9996 8.88084 14.0115 8.9152 14.0297 8.94627C14.0479 8.97734 14.0721 9.00451 14.1008 9.02622C14.1295 9.04793 14.1623 9.06375 14.1971 9.07278C14.232 9.0818 14.2683 9.08385 14.3039 9.07881C14.3396 9.07377 14.3739 9.06173 14.4049 9.04339L15.0054 8.69152C15.3865 9.41684 15.6042 10.2168 15.6432 11.0353H14.9455C14.873 11.0353 14.8035 11.0641 14.7522 11.1154C14.7009 11.1666 14.6721 11.2362 14.6721 11.3087C14.6721 11.3812 14.7009 11.4508 14.7522 11.5021C14.8035 11.5533 14.873 11.5821 14.9455 11.5821H15.6432C15.6045 12.3896 15.3918 13.1792 15.0196 13.8968L14.4176 13.5484C14.3548 13.5121 14.2801 13.5022 14.2101 13.5209C14.14 13.5396 14.0802 13.5854 14.0439 13.6482C14.0076 13.7109 13.9977 13.7856 14.0164 13.8557C14.0351 13.9257 14.0809 13.9855 14.1437 14.0218L14.7449 14.3698C14.3144 15.0345 13.75 15.6021 13.0877 16.0364Z" fill="#1146A6"/>
<path d="M14.1242 11.3083C14.1242 11.2357 14.0954 11.1662 14.0441 11.1149C13.9928 11.0636 13.9233 11.0348 13.8508 11.0348H11.218C11.1658 10.8043 11.0494 10.5933 10.8822 10.4261C10.7151 10.259 10.5041 10.1425 10.2736 10.0903V7.45764C10.2736 7.38512 10.2448 7.31557 10.1935 7.26429C10.1422 7.21301 10.0727 7.1842 10.0001 7.1842C9.92762 7.1842 9.85807 7.21301 9.80679 7.26429C9.75551 7.31557 9.72671 7.38512 9.72671 7.45764V10.0903C9.50855 10.1392 9.30751 10.2457 9.14459 10.3988C8.98166 10.5519 8.86283 10.7459 8.80049 10.9606C8.73816 11.1753 8.73461 11.4028 8.79022 11.6193C8.84583 11.8358 8.95856 12.0335 9.11664 12.1916C9.27471 12.3496 9.47233 12.4624 9.68886 12.518C9.90539 12.5737 10.1329 12.5701 10.3476 12.5078C10.5623 12.4455 10.7563 12.3267 10.9094 12.1638C11.0625 12.0009 11.1691 11.7999 11.218 11.5817H13.8508C13.9233 11.5817 13.9928 11.5528 14.0441 11.5016C14.0953 11.4503 14.1242 11.3808 14.1242 11.3083ZM10.0001 12.0103C9.86125 12.0103 9.72547 11.9692 9.60997 11.892C9.49447 11.8149 9.40445 11.7052 9.35128 11.5769C9.29811 11.4486 9.28419 11.3074 9.31128 11.1712C9.33837 11.0349 9.40525 10.9098 9.50347 10.8116C9.60168 10.7134 9.72681 10.6465 9.86304 10.6194C9.99926 10.5923 10.1405 10.6062 10.2688 10.6594C10.3971 10.7126 10.5068 10.8026 10.5839 10.9181C10.661 11.0336 10.7022 11.1694 10.7022 11.3083C10.7019 11.4944 10.6278 11.6728 10.4962 11.8044C10.3646 11.936 10.1862 12.01 10.0001 12.0103Z" fill="#1146A6"/>
</svg>
