<svg width="11" height="13" viewBox="0 0 11 13" fill="none" xmlns="http://www.w3.org/2000/svg">
<path fill-rule="evenodd" clip-rule="evenodd" d="M8.92857 5.35714C9.40217 5.35714 9.85638 5.54528 10.1913 5.88017C10.5261 6.21505 10.7143 6.66926 10.7143 7.14286V10.7143C10.7143 11.1879 10.5261 11.6421 10.1913 11.977C9.85638 12.3119 9.40217 12.5 8.92857 12.5H1.78571C1.31211 12.5 0.85791 12.3119 0.523024 11.977C0.188137 11.6421 0 11.1879 0 10.7143V7.14286C0 6.66926 0.188137 6.21505 0.523024 5.88017C0.85791 5.54528 1.31211 5.35714 1.78571 5.35714V3.57143C1.78571 2.62423 2.16199 1.71582 2.83176 1.04605C3.50153 0.376274 4.40994 0 5.35714 0C6.30434 0 7.21275 0.376274 7.88252 1.04605C8.5523 1.71582 8.92857 2.62423 8.92857 3.57143V5.35714ZM5.35714 1.19048C5.98861 1.19048 6.59422 1.44133 7.04073 1.88784C7.48725 2.33436 7.7381 2.93996 7.7381 3.57143V5.35714H2.97619V3.57143C2.97619 2.93996 3.22704 2.33436 3.67356 1.88784C4.12007 1.44133 4.72568 1.19048 5.35714 1.19048ZM8.92857 6.54762H1.78571C1.62785 6.54762 1.47645 6.61033 1.36482 6.72196C1.25319 6.83359 1.19048 6.98499 1.19048 7.14286V10.7143C1.19048 10.8722 1.25319 11.0236 1.36482 11.1352C1.47645 11.2468 1.62785 11.3095 1.78571 11.3095H8.92857C9.08644 11.3095 9.23784 11.2468 9.34947 11.1352C9.4611 11.0236 9.52381 10.8722 9.52381 10.7143V7.14286C9.52381 6.98499 9.4611 6.83359 9.34947 6.72196C9.23784 6.61033 9.08644 6.54762 8.92857 6.54762Z" fill="#8C8E9B"/>
</svg>
