<svg width="28" height="28" viewBox="0 0 28 28" fill="none" xmlns="http://www.w3.org/2000/svg">
<path d="M6.91826 15.5729C6.44986 15.0658 5.65903 15.0344 5.15189 15.5028C4.64474 15.9712 4.61334 16.762 5.08174 17.2692L6.91826 15.5729ZM23.118 6.55902C23.4268 5.94154 23.1765 5.1907 22.559 4.88197C21.9415 4.57323 21.1907 4.82351 20.882 5.44098L23.118 6.55902ZM5.08174 17.2692L10.118 22.722L11.9545 21.0257L6.91826 15.5729L5.08174 17.2692ZM15.4124 21.9703L23.118 6.55902L20.882 5.44098L13.1763 20.8523L15.4124 21.9703ZM10.118 22.722C11.6601 24.3916 14.3959 24.0032 15.4124 21.9703L13.1763 20.8523C12.9417 21.3214 12.3104 21.4111 11.9545 21.0257L10.118 22.722Z" fill="#1146A6"/>
</svg>
