<svg width="164" height="50" viewBox="0 0 164 50" fill="none" xmlns="http://www.w3.org/2000/svg">
<path d="M0 3C0 1.34315 1.34315 0 3 0H105V38H3C1.34315 38 0 36.6569 0 35V3Z" fill="#1146A6"/>
<path d="M105 0L79 13H105V0Z" fill="#FCC01A"/>
<path d="M78 15C78 13.3431 79.3431 12 81 12H164V50H81C79.3431 50 78 48.6569 78 47V15Z" fill="#286ACC"/>
<path d="M11.61 28V11.44H18.119C19.1693 11.44 20.051 11.6547 20.764 12.084C21.477 12.5133 22.0137 13.0692 22.374 13.7515C22.7343 14.4262 22.9145 15.1392 22.9145 15.8905C22.9145 16.8028 22.6883 17.5848 22.236 18.2365C21.7913 18.8882 21.1895 19.3328 20.4305 19.5705L20.4075 19.007C21.4655 19.2677 22.2782 19.7775 22.8455 20.5365C23.4128 21.2878 23.6965 22.1657 23.6965 23.17C23.6965 24.1437 23.501 24.9908 23.11 25.7115C22.7267 26.4322 22.1632 26.9957 21.4195 27.402C20.6835 27.8007 19.7903 28 18.74 28H11.61ZM14.048 25.7115H18.372C18.9163 25.7115 19.4032 25.608 19.8325 25.401C20.2695 25.194 20.6107 24.8988 20.856 24.5155C21.109 24.1245 21.2355 23.6607 21.2355 23.124C21.2355 22.6257 21.1243 22.1772 20.902 21.7785C20.6873 21.3722 20.373 21.054 19.959 20.824C19.5527 20.5863 19.0735 20.4675 18.5215 20.4675H14.048V25.7115ZM14.048 18.202H18.0845C18.5292 18.202 18.9278 18.1138 19.2805 17.9375C19.6408 17.7535 19.9245 17.4928 20.1315 17.1555C20.3462 16.8105 20.4535 16.3965 20.4535 15.9135C20.4535 15.2695 20.2388 14.7405 19.8095 14.3265C19.3802 13.9125 18.8052 13.7055 18.0845 13.7055H14.048V18.202ZM39.0145 28H36.5765V15.6835L28.423 28H25.985V11.44H28.423V23.745L36.5765 11.44H39.0145V28ZM47.8938 28.345C46.7438 28.345 45.7433 28.1763 44.8923 27.839C44.0413 27.5017 43.3283 27.0647 42.7533 26.528C42.1859 25.9837 41.7528 25.4048 41.4538 24.7915L43.5468 23.4345C43.7308 23.8868 44.0068 24.3123 44.3748 24.711C44.7504 25.1097 45.2334 25.4355 45.8238 25.6885C46.4218 25.9338 47.1463 26.0565 47.9973 26.0565C48.8483 26.0565 49.5498 25.93 50.1018 25.677C50.6538 25.4163 51.0639 25.0713 51.3323 24.642C51.6083 24.205 51.7463 23.7143 51.7463 23.17C51.7463 22.5337 51.5776 22.043 51.2403 21.698C50.9106 21.3453 50.4698 21.1 49.9178 20.962C49.3658 20.8163 48.7678 20.732 48.1238 20.709C47.5871 20.6937 47.1999 20.6822 46.9623 20.6745C46.7246 20.6592 46.5636 20.6515 46.4793 20.6515C46.4026 20.6515 46.3298 20.6515 46.2608 20.6515V18.3745C46.3451 18.3745 46.4908 18.3745 46.6978 18.3745C46.9124 18.3745 47.1348 18.3745 47.3648 18.3745C47.5948 18.3668 47.7826 18.3592 47.9283 18.3515C48.8789 18.3055 49.6456 18.0717 50.2283 17.65C50.8186 17.2283 51.1138 16.6303 51.1138 15.856C51.1138 15.0817 50.8263 14.4722 50.2513 14.0275C49.6839 13.5828 48.9364 13.3605 48.0088 13.3605C47.1271 13.3605 46.3681 13.5637 45.7318 13.97C45.0954 14.3687 44.6048 14.8632 44.2598 15.4535L42.4888 13.786C43.0408 13.0193 43.7959 12.3792 44.7543 11.8655C45.7126 11.3518 46.8204 11.095 48.0778 11.095C48.7908 11.095 49.4808 11.1908 50.1478 11.3825C50.8148 11.5665 51.4128 11.8502 51.9418 12.2335C52.4708 12.6168 52.8886 13.1037 53.1953 13.694C53.5096 14.2767 53.6668 14.9705 53.6668 15.7755C53.6668 16.5805 53.5019 17.3088 53.1723 17.9605C52.8503 18.6122 52.4171 19.1297 51.8728 19.513C52.6318 19.7967 53.2259 20.2452 53.6553 20.8585C54.0846 21.4642 54.2993 22.2385 54.2993 23.1815C54.2993 24.2395 54.0194 25.1557 53.4598 25.93C52.9078 26.6967 52.1488 27.2908 51.1828 27.7125C50.2244 28.1342 49.1281 28.345 47.8938 28.345ZM55.6065 28L60.9885 11.44H64.45L69.832 28H67.3365L62.38 12.889H63.001L58.102 28H55.6065ZM58.401 24.2625V22.0085H67.049V24.2625H58.401Z" fill="white"/>
<path d="M93.2795 41.345C92.1295 41.345 91.129 41.1763 90.278 40.839C89.427 40.5017 88.714 40.0647 88.139 39.528C87.5717 38.9837 87.1385 38.4048 86.8395 37.7915L88.9325 36.4345C89.1165 36.8868 89.3925 37.3123 89.7605 37.711C90.1362 38.1097 90.6192 38.4355 91.2095 38.6885C91.8075 38.9338 92.532 39.0565 93.383 39.0565C94.234 39.0565 94.9355 38.93 95.4875 38.677C96.0395 38.4163 96.4497 38.0713 96.718 37.642C96.994 37.205 97.132 36.7143 97.132 36.17C97.132 35.5337 96.9633 35.043 96.626 34.698C96.2963 34.3453 95.8555 34.1 95.3035 33.962C94.7515 33.8163 94.1535 33.732 93.5095 33.709C92.9728 33.6937 92.5857 33.6822 92.348 33.6745C92.1103 33.6592 91.9493 33.6515 91.865 33.6515C91.7883 33.6515 91.7155 33.6515 91.6465 33.6515V31.3745C91.7308 31.3745 91.8765 31.3745 92.0835 31.3745C92.2982 31.3745 92.5205 31.3745 92.7505 31.3745C92.9805 31.3668 93.1683 31.3592 93.314 31.3515C94.2647 31.3055 95.0313 31.0717 95.614 30.65C96.2043 30.2283 96.4995 29.6303 96.4995 28.856C96.4995 28.0817 96.212 27.4722 95.637 27.0275C95.0697 26.5828 94.3222 26.3605 93.3945 26.3605C92.5128 26.3605 91.7538 26.5637 91.1175 26.97C90.4812 27.3687 89.9905 27.8632 89.6455 28.4535L87.8745 26.786C88.4265 26.0193 89.1817 25.3792 90.14 24.8655C91.0983 24.3518 92.2062 24.095 93.4635 24.095C94.1765 24.095 94.8665 24.1908 95.5335 24.3825C96.2005 24.5665 96.7985 24.8502 97.3275 25.2335C97.8565 25.6168 98.2743 26.1037 98.581 26.694C98.8953 27.2767 99.0525 27.9705 99.0525 28.7755C99.0525 29.5805 98.8877 30.3088 98.558 30.9605C98.236 31.6122 97.8028 32.1297 97.2585 32.513C98.0175 32.7967 98.6117 33.2452 99.041 33.8585C99.4703 34.4642 99.685 35.2385 99.685 36.1815C99.685 37.2395 99.4052 38.1557 98.8455 38.93C98.2935 39.6967 97.5345 40.2908 96.5685 40.7125C95.6102 41.1342 94.5138 41.345 93.2795 41.345ZM100.992 41L106.374 24.44H109.836L115.218 41H112.722L107.766 25.889H108.387L103.488 41H100.992ZM103.787 37.2625V35.0085H112.435V37.2625H103.787ZM117.281 41V24.44H119.719V36.745L127.872 24.44H130.31V41H127.872V28.6835L119.719 41H117.281ZM123.836 23.014C123.223 23.014 122.667 22.8645 122.168 22.5655C121.67 22.2665 121.271 21.8678 120.972 21.3695C120.673 20.8712 120.524 20.3153 120.524 19.702H122.433C122.433 20.0853 122.571 20.415 122.847 20.691C123.123 20.967 123.453 21.105 123.836 21.105C124.227 21.105 124.557 20.967 124.825 20.691C125.101 20.415 125.239 20.0853 125.239 19.702H127.148C127.148 20.3153 126.998 20.8712 126.699 21.3695C126.4 21.8678 125.998 22.2665 125.492 22.5655C124.994 22.8645 124.442 23.014 123.836 23.014ZM133.52 41V24.44H135.694L141.697 36.8945L147.665 24.44H149.862V40.9885H147.585V29.661L142.237 41H141.145L135.786 29.661V41H133.52Z" fill="white"/>
<path d="M161 12H164V50H161V12Z" fill="#FCC01A"/>
</svg>
