<svg width="56" height="56" viewBox="0 0 56 56" fill="none" xmlns="http://www.w3.org/2000/svg">
<g filter="url(#filter0_d_1637_5207)">
<rect x="10" y="6" width="36" height="36" rx="9" fill="white"/>
<rect x="12" y="8" width="32" height="32" rx="7" stroke="#07317E" stroke-width="4"/>
</g>
<circle cx="28" cy="24" r="1" stroke="#EFEFEF" stroke-width="2"/>
<circle cx="28" cy="30" r="1" stroke="#EFEFEF" stroke-width="2"/>
<circle cx="28" cy="18" r="1" stroke="#EFEFEF" stroke-width="2"/>
<circle cx="22" cy="24" r="1" transform="rotate(90 22 24)" stroke="#EFEFEF" stroke-width="2"/>
<circle cx="22" cy="30" r="1" transform="rotate(90 22 30)" stroke="#EFEFEF" stroke-width="2"/>
<circle cx="34" cy="24" r="1" transform="rotate(90 34 24)" stroke="#EFEFEF" stroke-width="2"/>
<circle cx="34" cy="30" r="1" transform="rotate(90 34 30)" stroke="#EFEFEF" stroke-width="2"/>
<circle cx="22" cy="18" r="1" transform="rotate(90 22 18)" stroke="#EFEFEF" stroke-width="2"/>
<circle cx="34" cy="18" r="1" transform="rotate(90 34 18)" stroke="#EFEFEF" stroke-width="2"/>
<defs>
<filter id="filter0_d_1637_5207" x="0" y="0" width="56" height="56" filterUnits="userSpaceOnUse" color-interpolation-filters="sRGB">
<feFlood flood-opacity="0" result="BackgroundImageFix"/>
<feColorMatrix in="SourceAlpha" type="matrix" values="0 0 0 0 0 0 0 0 0 0 0 0 0 0 0 0 0 0 127 0" result="hardAlpha"/>
<feOffset dy="4"/>
<feGaussianBlur stdDeviation="5"/>
<feComposite in2="hardAlpha" operator="out"/>
<feColorMatrix type="matrix" values="0 0 0 0 0.0705882 0 0 0 0 0.270588 0 0 0 0 0.643137 0 0 0 0.2 0"/>
<feBlend mode="normal" in2="BackgroundImageFix" result="effect1_dropShadow_1637_5207"/>
<feBlend mode="normal" in="SourceGraphic" in2="effect1_dropShadow_1637_5207" result="shape"/>
</filter>
</defs>
</svg>
