<svg width="28" height="28" viewBox="0 0 28 28" fill="none" xmlns="http://www.w3.org/2000/svg">
<path d="M8.9375 12.875C7.85 12.875 6.92188 12.4906 6.15313 11.7219C5.38438 10.9531 5 10.025 5 8.9375C5 7.85 5.38438 6.92188 6.15313 6.15313C6.92188 5.38438 7.85 5 8.9375 5C10.025 5 10.9531 5.38438 11.7219 6.15313C12.4906 6.92188 12.875 7.85 12.875 8.9375C12.875 10.025 12.4906 10.9531 11.7219 11.7219C10.9531 12.4906 10.025 12.875 8.9375 12.875ZM8.9375 10.625C9.40625 10.625 9.8045 10.4608 10.1323 10.1323C10.4608 9.8045 10.625 9.40625 10.625 8.9375C10.625 8.46875 10.4608 8.0705 10.1323 7.74275C9.8045 7.41425 9.40625 7.25 8.9375 7.25C8.46875 7.25 8.0705 7.41425 7.74275 7.74275C7.41425 8.0705 7.25 8.46875 7.25 8.9375C7.25 9.40625 7.41425 9.8045 7.74275 10.1323C8.0705 10.4608 8.46875 10.625 8.9375 10.625ZM19.0625 23C17.975 23 17.0469 22.6156 16.2781 21.8469C15.5094 21.0781 15.125 20.15 15.125 19.0625C15.125 17.975 15.5094 17.0469 16.2781 16.2781C17.0469 15.5094 17.975 15.125 19.0625 15.125C20.15 15.125 21.0781 15.5094 21.8469 16.2781C22.6156 17.0469 23 17.975 23 19.0625C23 20.15 22.6156 21.0781 21.8469 21.8469C21.0781 22.6156 20.15 23 19.0625 23ZM19.0625 20.75C19.5312 20.75 19.9295 20.5857 20.2572 20.2572C20.5857 19.9295 20.75 19.5312 20.75 19.0625C20.75 18.5938 20.5857 18.1955 20.2572 17.8678C19.9295 17.5393 19.5312 17.375 19.0625 17.375C18.5938 17.375 18.1955 17.5393 17.8678 17.8678C17.5393 18.1955 17.375 18.5938 17.375 19.0625C17.375 19.5312 17.5393 19.9295 17.8678 20.2572C18.1955 20.5857 18.5938 20.75 19.0625 20.75ZM5.7875 22.2125C5.58125 22.0063 5.47813 21.7438 5.47813 21.425C5.47813 21.1063 5.58125 20.8438 5.7875 20.6375L20.6375 5.7875C20.8438 5.58125 21.1063 5.47813 21.425 5.47813C21.7438 5.47813 22.0063 5.58125 22.2125 5.7875C22.4187 5.99375 22.5219 6.25625 22.5219 6.575C22.5219 6.89375 22.4187 7.15625 22.2125 7.3625L7.3625 22.2125C7.15625 22.4187 6.89375 22.5219 6.575 22.5219C6.25625 22.5219 5.99375 22.4187 5.7875 22.2125Z" fill="#1146A6"/>
</svg>
